<svg xmlns="http://www.w3.org/2000/svg" version="1.1" xmlns:xlink="http://www.w3.org/1999/xlink" viewBox="0 0 13.196981450922419 5.681752991347279"><g transform="matrix(0.7831520302789645,0,0,0.7831520302789645,4.72795778557089,2.0739112389205037)"><g transform="matrix(1,0,0,1,0,0)" clip-path="url(#SvgjsClipPath9575)"><g clip-path="url(#SvgjsClipPath95733ac2c6cb-ed1f-4a89-be5e-28fbb0703f8a)"><path d=" M -2.224125498153451 1.5247175174913257 L -1.9119619296789239 1.8368810859658509 L -1.7170525516692932 2.0317904639754816 L -1.2542070629920734 2.4946359526527035 L -1.7088241874261432 2.9492530770867735 C -1.8214118987446966 3.061451883231776 -2.0035405061435485 3.061451883231776 -2.1161282174620997 2.9492530770867735 L -2.373264600060556 2.6895453306623343 L -2.568173978070187 2.4946359526527035 L -2.96930673492378 2.0935031957991104 C -3.142853542547744 1.9236545970050427 -3.2734788230770895 1.714936200045868 -3.350382853934693 1.4846042418059628 C -3.3385545803351624 1.497975333701083 -3.325697761205241 1.5113464255962032 -3.3128409420753173 1.524203244726127 C -3.0116057844264255 1.8253474430901853 -2.523303564741556 1.8253474430901853 -2.2220684070926646 1.524203244726127 Z" fill="#225777" transform="matrix(1,0,0,1,0,0)" fill-rule="evenodd"></path></g><g clip-path="url(#SvgjsClipPath95733ac2c6cb-ed1f-4a89-be5e-28fbb0703f8a)"><path d=" M -3.352439944995479 0.4745725309592286 C -3.2758077567346713 0.2439627886946969 -3.145150398633503 0.03501681116448996 -2.9713638259845685 -0.1348406957991114 L -2.6699999855791767 -0.4362045362045034 L -2.0117308461271275 0.22206460324754596 L -2.224125498153451 0.4339449825086732 L -2.224125498153451 0.4339449825086732 C -2.5253606558023427 0.13280078414461505 -3.013662875487212 0.13280078414461505 -3.3148980331361013 0.4339449825086732 C -3.327754852266025 0.4473160744037934 -3.3406116713959486 0.4606871662989116 -3.352439944995479 0.4745725309592286 Z" fill="#225777" transform="matrix(1,0,0,1,0,0)" fill-rule="evenodd"></path></g><g clip-path="url(#SvgjsClipPath95733ac2c6cb-ed1f-4a89-be5e-28fbb0703f8a)"><path d=" M -0.47199818712756736 1.4851185145711616 C -0.5485733979272678 1.7154848912165934 -0.6790445624693926 1.9242387544839938 -0.8525600333732815 2.094017468564309 L -1.1539238737786732 2.395381308969697 L -1.8127072859959172 1.7371121695176472 L -1.6003126339695912 1.5247175174913234 L -1.6003126339695912 1.5247175174913234 C -1.299077476320702 1.8258617158553818 -0.8107752566358322 1.8258617158553818 -0.509540098986943 1.5247175174913234 C -0.49616900709182277 1.5113464255962055 -0.4838264607270957 1.4984896064662818 -0.47199818712756736 1.4851185145711616 Z" fill="#173054" transform="matrix(1,0,0,1,0,0)" fill-rule="evenodd"></path></g><g clip-path="url(#SvgjsClipPath95733ac2c6cb-ed1f-4a89-be5e-28fbb0703f8a)"><path d=" M -1.7083099146609466 -0.9905905770867767 L -0.8525600333732837 -0.13432642303391473 C -0.679044562469397 0.03545229104639591 -0.5485733979272722 0.24420615431379677 -0.4719981871275718 0.4745725309592286 C -0.4839978849821631 0.46120143906410815 -0.4963404313468902 0.4478303471689902 -0.5090258262217464 0.43445925527386975 C -0.8102609838706356 0.1333150569098116 -1.2985632035555073 0.1333150569098116 -1.5997983612043967 0.43445925527386975 L -2.5702310691309735 -0.5359734526527046 L -2.115613944696901 -0.9905905770867746 C -2.0030262333783497 -1.102789383231777 -1.8208976259794958 -1.102789383231777 -1.7083099146609444 -0.9905905770867746 Z" fill="#173054" transform="matrix(1,0,0,1,0,0)" fill-rule="evenodd"></path></g><g clip-path="url(#SvgjsClipPath95733ac2c6cb-ed1f-4a89-be5e-28fbb0703f8a)"><path d=" M -2.3074376861153523 1.44243387505982 C -2.0866373563346565 1.2219082481787376 -2.0523520432376463 0.8761246811252277 -2.225547567388837 0.6165333712619114 C -2.398743091540026 0.3569420613985974 -2.731187265403878 0.2558350428371259 -3.019587067352539 0.3750402943092386 C -3.307986869301203 0.49424554578135327 -3.4720275602502118 0.8005663084654717 -3.411396575400032 1.1066842945732076 C -3.350765590549855 1.4128022806809408 -3.0823476909016203 1.6334685197997487 -2.7702831747925725 1.63374334371307 C -2.59667589188392 1.6341802167661386 -2.430072503574988 1.5653174829317806 -2.3074376861153523 1.44243387505982 Z" fill="#225777" transform="matrix(1,0,0,1,0,0)" fill-rule="evenodd"></path></g><g clip-path="url(#SvgjsClipPath95733ac2c6cb-ed1f-4a89-be5e-28fbb0703f8a)"><path d=" M -0.5918237414184491 1.4419196022946212 C -0.37155643354342294 1.221292933426461 -0.33776024312623454 0.8758150552832542 -0.5110955468131793 0.6166844194446335 C -0.6844308505001218 0.35755378360601275 -1.0166460728131974 0.25690492451402247 -1.3046505240654125 0.3762667693107715 C -1.5926549753176253 0.495628614107525 -1.756276479258643 0.8017742497470477 -1.6954895046932401 1.1075499153215924 C -1.634702530127833 1.4133255808961414 -1.3664284267691564 1.6336121039522387 -1.0546692300956688 1.6337433437130722 C -0.8809991166011408 1.6339869820925048 -0.7144063028007626 1.5649435159285692 -0.5918237414184491 1.4419196022946235 Z" fill="#173054" transform="matrix(1,0,0,1,0,0)" fill-rule="evenodd"></path></g></g><g><path d=" M 1.026 0.018000000000000016 L 1.026 0.8205 L 1.02 0.8205 L 0.1875 0 L 0.18 0 L 0.18 1.068 L 0.249 1.068 L 0.249 0.26550000000000007 L 0.255 0.26550000000000007 L 1.0875000000000001 1.086 L 1.095 1.086 L 1.095 0.018000000000000016 L 1.026 0.018000000000000016 M 1.45196337890625 0.018000000000000016 L 1.45196337890625 1.068 L 2.12996337890625 1.068 L 2.12996337890625 0.9855 L 1.5884633789062501 0.9855 L 1.5884633789062501 0.546 L 2.05346337890625 0.546 L 2.05346337890625 0.4770000000000001 L 1.5884633789062501 0.4770000000000001 L 1.5884633789062501 0.10050000000000003 L 2.12996337890625 0.10050000000000003 L 2.12996337890625 0.018000000000000016 L 1.45196337890625 0.018000000000000016 M 2.3849479980468753 0.018000000000000016 L 2.216947998046875 0.018000000000000016 L 2.626447998046875 0.5445000000000001 L 2.2244479980468754 1.068 L 2.3054479980468754 1.068 L 2.663947998046875 0.5985 L 2.669947998046875 0.5985 L 3.035947998046875 1.068 L 3.2054479980468753 1.068 L 2.7509479980468754 0.48750000000000004 L 3.109447998046875 0.018000000000000016 L 3.0299479980468753 0.018000000000000016 L 2.7134479980468753 0.4305 L 2.7059479980468755 0.4305 L 2.3849479980468753 0.018000000000000016 M 4.310939208984375 0.8745 Q 4.157939208984375 1.0185 3.947939208984375 1.0185 Q 3.830939208984375 1.0185 3.740939208984375 0.9780000000000001 Q 3.6509392089843753 0.9375 3.5909392089843752 0.8700000000000001 Q 3.530939208984375 0.8025 3.5001892089843754 0.7140000000000001 Q 3.469439208984375 0.6255000000000001 3.469439208984375 0.5295000000000001 Q 3.469439208984375 0.4275000000000001 3.501689208984375 0.34275 Q 3.5339392089843753 0.258 3.5924392089843753 0.1965 Q 3.6509392089843753 0.135 3.7311892089843752 0.10050000000000003 Q 3.811439208984375 0.06600000000000006 3.905939208984375 0.06600000000000006 Q 3.970439208984375 0.06600000000000006 4.023689208984375 0.08100000000000007 Q 4.076939208984375 0.09600000000000009 4.118189208984375 0.12 Q 4.1594392089843755 0.14400000000000002 4.185689208984375 0.17475000000000007 Q 4.211939208984375 0.20550000000000002 4.222439208984375 0.237 L 4.333439208984375 0.237 Q 4.310939208984375 0.18600000000000005 4.275689208984375 0.14250000000000007 Q 4.240439208984375 0.09900000000000009 4.187939208984375 0.06750000000000012 Q 4.1354392089843754 0.03600000000000003 4.064939208984375 0.018000000000000016 Q 3.994439208984375 0 3.904439208984375 0 Q 3.773939208984375 0 3.666689208984375 0.03750000000000009 Q 3.559439208984375 0.07500000000000007 3.482939208984375 0.14475000000000005 Q 3.406439208984375 0.21450000000000002 3.364439208984375 0.3127500000000001 Q 3.3224392089843753 0.41100000000000003 3.3224392089843753 0.5325000000000001 Q 3.3224392089843753 0.6375000000000001 3.3561892089843752 0.7372500000000001 Q 3.389939208984375 0.8370000000000001 3.460439208984375 0.91425 Q 3.530939208984375 0.9915 3.6404392089843753 1.03875 Q 3.749939208984375 1.086 3.901439208984375 1.086 Q 3.997439208984375 1.086 4.073189208984375 1.068 Q 4.148939208984375 1.05 4.205189208984375 1.0237500000000002 Q 4.261439208984375 0.9975 4.298939208984375 0.9675 Q 4.336439208984375 0.9375 4.355939208984375 0.915 L 4.310939208984375 0.8745 M 4.5028974609375 0.018000000000000016 L 4.5028974609375 0.663 Q 4.5028974609375 0.7245 4.514897460937499 0.7987500000000001 Q 4.5268974609375 0.873 4.5718974609375 0.9367500000000001 Q 4.6168974609374995 1.0005000000000002 4.705397460937499 1.04325 Q 4.793897460937499 1.086 4.9468974609375 1.086 Q 5.0428974609375 1.086 5.1171474609375 1.056 Q 5.1913974609375 1.026 5.241647460937499 0.9735 Q 5.291897460937499 0.921 5.317397460937499 0.8512500000000001 Q 5.3428974609374995 0.7815000000000001 5.3428974609374995 0.7020000000000001 L 5.3428974609374995 0.018000000000000016 L 5.2768974609375 0.018000000000000016 L 5.2768974609375 0.6525000000000001 Q 5.2768974609375 0.6855 5.2753974609375 0.7192500000000001 Q 5.2738974609375 0.7530000000000001 5.266397460937499 0.7867500000000001 Q 5.2588974609375 0.8205 5.243147460937499 0.8535 Q 5.2273974609375 0.8865000000000001 5.197397460937499 0.9195000000000001 Q 5.1433974609375 0.9780000000000001 5.075897460937499 0.9990000000000001 Q 5.008397460937499 1.02 4.934897460937499 1.02 Q 4.871897460937499 1.02 4.823147460937499 1.0005000000000002 Q 4.774397460937499 0.9810000000000001 4.730897460937499 0.9420000000000001 Q 4.6963974609375 0.912 4.678397460937499 0.8820000000000001 Q 4.660397460937499 0.8520000000000001 4.6513974609375 0.8227500000000001 Q 4.6423974609375 0.7935000000000001 4.6408974609374996 0.7635000000000001 Q 4.6393974609374995 0.7335 4.6393974609374995 0.7035 L 4.6393974609374995 0.018000000000000016 L 4.5028974609375 0.018000000000000016 M 5.639853515624999 1.068 L 6.016353515624999 1.068 Q 6.1168535156249995 1.068 6.185853515624999 1.04175 Q 6.254853515624999 1.0155 6.296853515624999 0.9735 Q 6.338853515624999 0.9315 6.357603515625 0.8782500000000001 Q 6.3763535156249995 0.8250000000000001 6.3763535156249995 0.7710000000000001 Q 6.3763535156249995 0.6855 6.339603515624999 0.6345000000000001 Q 6.302853515624999 0.5835000000000001 6.251853515624999 0.5565 Q 6.200853515624999 0.5295000000000001 6.146853515625 0.5205000000000001 Q 6.092853515624999 0.5115000000000001 6.059853515624999 0.51 L 6.059853515624999 0.504 Q 6.112353515624999 0.504 6.158853515624999 0.48375 Q 6.205353515624999 0.4635 6.240603515625 0.43125 Q 6.275853515624999 0.399 6.296853515624999 0.35625000000000007 Q 6.317853515624999 0.3135 6.317853515624999 0.26550000000000007 Q 6.317853515624999 0.22350000000000003 6.299853515624999 0.18000000000000005 Q 6.2818535156249995 0.13650000000000007 6.245103515624999 0.10050000000000003 Q 6.208353515624999 0.0645 6.150603515624999 0.04125000000000001 Q 6.092853515624999 0.018000000000000016 6.014853515624999 0.018000000000000016 L 5.639853515624999 0.018000000000000016 L 5.639853515624999 1.068 M 5.776353515624999 1.002 L 5.776353515624999 0.543 L 5.941353515624999 0.543 Q 6.014853515624999 0.543 6.068853515624999 0.5625 Q 6.122853515625 0.5820000000000001 6.158103515624999 0.615 Q 6.193353515625 0.6480000000000001 6.2106035156249995 0.6915 Q 6.227853515624999 0.7350000000000001 6.227853515624999 0.783 Q 6.227853515624999 0.8355 6.209103515624999 0.8760000000000001 Q 6.190353515625 0.9165000000000001 6.158853515624999 0.9450000000000001 Q 6.127353515625 0.9735 6.084603515624999 0.98775 Q 6.041853515624999 1.002 5.993853515624999 1.002 L 5.776353515624999 1.002 M 5.776353515624999 0.4770000000000001 L 5.776353515624999 0.08400000000000007 L 5.959353515625 0.08400000000000007 Q 6.017853515624999 0.08400000000000007 6.059103515624999 0.10050000000000003 Q 6.100353515625 0.11699999999999999 6.126603515625 0.14400000000000002 Q 6.152853515624999 0.17100000000000004 6.1648535156249995 0.20550000000000002 Q 6.176853515624999 0.24 6.176853515624999 0.2745000000000001 Q 6.176853515624999 0.31800000000000006 6.159603515624999 0.35550000000000004 Q 6.1423535156249995 0.393 6.111603515624999 0.42000000000000004 Q 6.080853515625 0.44700000000000006 6.041103515624999 0.4620000000000001 Q 6.0013535156249995 0.4770000000000001 5.956353515625 0.4770000000000001 L 5.776353515624999 0.4770000000000001 M 6.6883696289062495 0.018000000000000016 L 6.6883696289062495 1.068 L 6.824869628906249 1.068 L 6.824869628906249 0.018000000000000016 L 6.6883696289062495 0.018000000000000016 M 8.125385742187499 0.8745 Q 7.972385742187499 1.0185 7.762385742187499 1.0185 Q 7.645385742187499 1.0185 7.555385742187499 0.9780000000000001 Q 7.465385742187499 0.9375 7.405385742187499 0.8700000000000001 Q 7.345385742187499 0.8025 7.314635742187499 0.7140000000000001 Q 7.2838857421875 0.6255000000000001 7.2838857421875 0.5295000000000001 Q 7.2838857421875 0.4275000000000001 7.316135742187499 0.34275 Q 7.348385742187499 0.258 7.406885742187499 0.1965 Q 7.465385742187499 0.135 7.545635742187499 0.10050000000000003 Q 7.625885742187499 0.06600000000000006 7.720385742187499 0.06600000000000006 Q 7.784885742187499 0.06600000000000006 7.838135742187499 0.08100000000000007 Q 7.8913857421874996 0.09600000000000009 7.932635742187499 0.12 Q 7.973885742187499 0.14400000000000002 8.0001357421875 0.17475000000000007 Q 8.026385742187498 0.20550000000000002 8.036885742187499 0.237 L 8.1478857421875 0.237 Q 8.125385742187499 0.18600000000000005 8.090135742187499 0.14250000000000007 Q 8.0548857421875 0.09900000000000009 8.0023857421875 0.06750000000000012 Q 7.949885742187499 0.03600000000000003 7.879385742187499 0.018000000000000016 Q 7.808885742187499 0 7.718885742187499 0 Q 7.5883857421875 0 7.481135742187499 0.03750000000000009 Q 7.3738857421874995 0.07500000000000007 7.297385742187499 0.14475000000000005 Q 7.220885742187499 0.21450000000000002 7.178885742187499 0.3127500000000001 Q 7.136885742187499 0.41100000000000003 7.136885742187499 0.5325000000000001 Q 7.136885742187499 0.6375000000000001 7.170635742187499 0.7372500000000001 Q 7.204385742187499 0.8370000000000001 7.274885742187499 0.91425 Q 7.345385742187499 0.9915 7.454885742187499 1.03875 Q 7.5643857421875 1.086 7.715885742187499 1.086 Q 7.811885742187499 1.086 7.887635742187499 1.068 Q 7.9633857421875 1.05 8.0196357421875 1.0237500000000002 Q 8.075885742187499 0.9975 8.1133857421875 0.9675 Q 8.1508857421875 0.9375 8.170385742187499 0.915 L 8.125385742187499 0.8745" fill="#173054" fill-rule="nonzero"></path></g><g><path d=" M 0.38025000000000003 1.7329124999999999 Q 0.41100000000000003 1.7696624999999997 0.41100000000000003 1.8184124999999998 Q 0.41100000000000003 1.8581624999999997 0.391125 1.8900374999999998 Q 0.37125 1.9219124999999997 0.333 1.9402874999999997 Q 0.29475 1.9586624999999998 0.2415 1.9586624999999998 L 0.06 1.9586624999999998 L 0.06 1.4344124999999996 L 0.23625000000000002 1.4344124999999996 Q 0.31575000000000003 1.4344124999999996 0.357375 1.4711624999999997 Q 0.399 1.5079124999999998 0.399 1.5664124999999998 Q 0.399 1.6151624999999998 0.37275 1.6455374999999997 Q 0.34650000000000003 1.6759124999999997 0.30525 1.6879124999999997 Q 0.34950000000000003 1.6961624999999998 0.38025000000000003 1.7329124999999999 M 0.1125 1.6661624999999998 L 0.23475000000000001 1.6661624999999998 Q 0.28800000000000003 1.6661624999999998 0.316875 1.6410374999999997 Q 0.34575 1.6159124999999999 0.34575 1.5716624999999997 Q 0.34575 1.5281624999999996 0.316875 1.5034124999999998 Q 0.28800000000000003 1.4786624999999998 0.2325 1.4786624999999998 L 0.1125 1.4786624999999998 L 0.1125 1.6661624999999998 M 0.326625 1.8874124999999997 Q 0.3585 1.8604124999999998 0.3585 1.8131624999999998 Q 0.3585 1.7659124999999998 0.325125 1.7377874999999998 Q 0.29175 1.7096624999999999 0.23550000000000001 1.7096624999999999 L 0.1125 1.7096624999999999 L 0.1125 1.9144124999999999 L 0.23775000000000002 1.9144124999999999 Q 0.29475 1.9144124999999999 0.326625 1.8874124999999997 M 0.5621136474609375 1.4771624999999997 L 0.5621136474609375 1.6729124999999998 L 0.7608636474609375 1.6729124999999998 L 0.7608636474609375 1.7164124999999997 L 0.5621136474609375 1.7164124999999997 L 0.5621136474609375 1.9151624999999997 L 0.7833636474609375 1.9151624999999997 L 0.7833636474609375 1.9586624999999998 L 0.5096136474609374 1.9586624999999998 L 0.5096136474609374 1.4336624999999996 L 0.7833636474609375 1.4336624999999996 L 0.7833636474609375 1.4771624999999997 L 0.5621136474609375 1.4771624999999997 M 0.9566066894531249 1.9459124999999997 Q 0.9172316894531249 1.9279124999999997 0.894731689453125 1.8956624999999998 Q 0.8722316894531249 1.8634124999999997 0.870731689453125 1.8236624999999997 L 0.926231689453125 1.8236624999999997 Q 0.929981689453125 1.8619124999999999 0.9599816894531249 1.8907874999999998 Q 0.9899816894531249 1.9196624999999998 1.047731689453125 1.9196624999999998 Q 1.1009816894531248 1.9196624999999998 1.1321066894531249 1.8922874999999997 Q 1.163231689453125 1.8649124999999998 1.163231689453125 1.8229124999999997 Q 1.163231689453125 1.7891624999999998 1.145981689453125 1.7685374999999997 Q 1.128731689453125 1.7479124999999998 1.1032316894531249 1.7377874999999998 Q 1.0777316894531248 1.7276624999999997 1.0327316894531249 1.7156624999999996 Q 0.9802316894531249 1.7014124999999998 0.9494816894531249 1.6879124999999997 Q 0.9187316894531249 1.6744124999999999 0.896981689453125 1.6459124999999997 Q 0.8752316894531249 1.6174124999999997 0.8752316894531249 1.5686624999999998 Q 0.8752316894531249 1.5281624999999996 0.8962316894531249 1.4962874999999998 Q 0.9172316894531249 1.4644124999999997 0.955481689453125 1.4464124999999997 Q 0.993731689453125 1.4284124999999999 1.0432316894531248 1.4284124999999999 Q 1.115981689453125 1.4284124999999999 1.1606066894531248 1.4640374999999997 Q 1.205231689453125 1.4996624999999997 1.211981689453125 1.5559124999999998 L 1.1549816894531248 1.5559124999999998 Q 1.1497316894531249 1.5236624999999997 1.1197316894531248 1.4985374999999999 Q 1.0897316894531248 1.4734124999999998 1.0387316894531249 1.4734124999999998 Q 0.9914816894531249 1.4734124999999998 0.9599816894531249 1.4985374999999999 Q 0.9284816894531249 1.5236624999999997 0.9284816894531249 1.5671624999999998 Q 0.9284816894531249 1.6001624999999997 0.9457316894531249 1.6204124999999998 Q 0.9629816894531249 1.6406624999999997 0.9888566894531249 1.6511624999999999 Q 1.0147316894531249 1.6616624999999998 1.058981689453125 1.6736624999999998 Q 1.109981689453125 1.6879124999999997 1.141481689453125 1.7017874999999998 Q 1.1729816894531249 1.7156624999999996 1.1947316894531248 1.7441624999999998 Q 1.216481689453125 1.7726624999999998 1.216481689453125 1.8206624999999996 Q 1.216481689453125 1.8574124999999997 1.1969816894531249 1.8904124999999998 Q 1.177481689453125 1.9234124999999997 1.139231689453125 1.9436624999999998 Q 1.1009816894531248 1.9639124999999997 1.047731689453125 1.9639124999999997 Q 0.9959816894531249 1.9639124999999997 0.9566066894531249 1.9459124999999997 M 1.626372802734375 1.4344124999999996 L 1.626372802734375 1.4779124999999997 L 1.4808728027343747 1.4779124999999997 L 1.4808728027343747 1.9586624999999998 L 1.4283728027343747 1.9586624999999998 L 1.4283728027343747 1.4779124999999997 L 1.2821228027343747 1.4779124999999997 L 1.2821228027343747 1.4344124999999996 L 1.626372802734375 1.4344124999999996 M 2.2256275634765625 1.4344124999999996 L 2.2256275634765625 1.4779124999999997 L 2.0801275634765624 1.4779124999999997 L 2.0801275634765624 1.9586624999999998 L 2.0276275634765626 1.9586624999999998 L 2.0276275634765626 1.4779124999999997 L 1.8813775634765624 1.4779124999999997 L 1.8813775634765624 1.4344124999999996 L 2.2256275634765625 1.4344124999999996 M 2.3632672119140623 1.4771624999999997 L 2.3632672119140623 1.6729124999999998 L 2.5620172119140623 1.6729124999999998 L 2.5620172119140623 1.7164124999999997 L 2.3632672119140623 1.7164124999999997 L 2.3632672119140623 1.9151624999999997 L 2.5845172119140623 1.9151624999999997 L 2.5845172119140623 1.9586624999999998 L 2.3107672119140625 1.9586624999999998 L 2.3107672119140625 1.4336624999999996 L 2.5845172119140623 1.4336624999999996 L 2.5845172119140623 1.4771624999999997 L 2.3632672119140623 1.4771624999999997 M 2.69963525390625 1.5577874999999999 Q 2.73338525390625 1.4966624999999998 2.79188525390625 1.4625374999999998 Q 2.85038525390625 1.4284124999999999 2.92238525390625 1.4284124999999999 Q 3.0101352539062503 1.4284124999999999 3.07276025390625 1.4700374999999997 Q 3.13538525390625 1.5116624999999997 3.1638852539062503 1.5874124999999997 L 3.10238525390625 1.5874124999999997 Q 3.0798852539062502 1.5341624999999999 3.03376025390625 1.5041624999999996 Q 2.98763525390625 1.4741624999999998 2.92238525390625 1.4741624999999998 Q 2.86463525390625 1.4741624999999998 2.81851025390625 1.5011624999999997 Q 2.77238525390625 1.5281624999999996 2.74613525390625 1.5787874999999998 Q 2.71988525390625 1.6294124999999997 2.71988525390625 1.6961624999999998 Q 2.71988525390625 1.7629124999999997 2.74613525390625 1.8131624999999998 Q 2.77238525390625 1.8634124999999997 2.81851025390625 1.8904124999999998 Q 2.86463525390625 1.9174124999999997 2.92238525390625 1.9174124999999997 Q 2.98763525390625 1.9174124999999997 3.03376025390625 1.8877874999999997 Q 3.0798852539062502 1.8581624999999997 3.10238525390625 1.8056624999999997 L 3.1638852539062503 1.8056624999999997 Q 3.13538525390625 1.8806624999999997 3.07238525390625 1.9219124999999997 Q 3.0093852539062502 1.9631624999999997 2.92238525390625 1.9631624999999997 Q 2.85038525390625 1.9631624999999997 2.79188525390625 1.9290374999999997 Q 2.73338525390625 1.8949124999999998 2.69963525390625 1.8341624999999997 Q 2.66588525390625 1.7734124999999998 2.66588525390625 1.6961624999999998 Q 2.66588525390625 1.6189124999999998 2.69963525390625 1.5577874999999999 M 3.65925732421875 1.4344124999999996 L 3.65925732421875 1.9586624999999998 L 3.6067573242187496 1.9586624999999998 L 3.6067573242187496 1.7134124999999998 L 3.3225073242187495 1.7134124999999998 L 3.3225073242187495 1.9586624999999998 L 3.2700073242187497 1.9586624999999998 L 3.2700073242187497 1.4344124999999996 L 3.3225073242187495 1.4344124999999996 L 3.3225073242187495 1.6699124999999997 L 3.6067573242187496 1.6699124999999997 L 3.6067573242187496 1.4344124999999996 L 3.65925732421875 1.4344124999999996 M 4.056384521484375 1.9459124999999997 Q 4.017009521484375 1.9279124999999997 3.9945095214843747 1.8956624999999998 Q 3.9720095214843747 1.8634124999999997 3.9705095214843746 1.8236624999999997 L 4.026009521484375 1.8236624999999997 Q 4.029759521484375 1.8619124999999999 4.0597595214843745 1.8907874999999998 Q 4.089759521484375 1.9196624999999998 4.147509521484375 1.9196624999999998 Q 4.2007595214843745 1.9196624999999998 4.231884521484375 1.8922874999999997 Q 4.263009521484375 1.8649124999999998 4.263009521484375 1.8229124999999997 Q 4.263009521484375 1.7891624999999998 4.245759521484375 1.7685374999999997 Q 4.228509521484375 1.7479124999999998 4.203009521484375 1.7377874999999998 Q 4.1775095214843745 1.7276624999999997 4.132509521484375 1.7156624999999996 Q 4.080009521484375 1.7014124999999998 4.049259521484375 1.6879124999999997 Q 4.018509521484375 1.6744124999999999 3.9967595214843747 1.6459124999999997 Q 3.975009521484375 1.6174124999999997 3.975009521484375 1.5686624999999998 Q 3.975009521484375 1.5281624999999996 3.9960095214843747 1.4962874999999998 Q 4.017009521484375 1.4644124999999997 4.055259521484375 1.4464124999999997 Q 4.093509521484375 1.4284124999999999 4.143009521484375 1.4284124999999999 Q 4.215759521484375 1.4284124999999999 4.260384521484375 1.4640374999999997 Q 4.305009521484375 1.4996624999999997 4.311759521484375 1.5559124999999998 L 4.254759521484375 1.5559124999999998 Q 4.2495095214843746 1.5236624999999997 4.219509521484375 1.4985374999999999 Q 4.189509521484375 1.4734124999999998 4.138509521484375 1.4734124999999998 Q 4.091259521484375 1.4734124999999998 4.0597595214843745 1.4985374999999999 Q 4.028259521484375 1.5236624999999997 4.028259521484375 1.5671624999999998 Q 4.028259521484375 1.6001624999999997 4.045509521484375 1.6204124999999998 Q 4.062759521484375 1.6406624999999997 4.088634521484375 1.6511624999999999 Q 4.114509521484375 1.6616624999999998 4.158759521484375 1.6736624999999998 Q 4.209759521484375 1.6879124999999997 4.241259521484375 1.7017874999999998 Q 4.2727595214843745 1.7156624999999996 4.2945095214843745 1.7441624999999998 Q 4.316259521484374 1.7726624999999998 4.316259521484374 1.8206624999999996 Q 4.316259521484374 1.8574124999999997 4.296759521484375 1.8904124999999998 Q 4.277259521484375 1.9234124999999997 4.239009521484375 1.9436624999999998 Q 4.2007595214843745 1.9639124999999997 4.147509521484375 1.9639124999999997 Q 4.095759521484375 1.9639124999999997 4.056384521484375 1.9459124999999997 M 4.469650634765625 1.4344124999999996 L 4.469650634765625 1.7644124999999997 Q 4.469650634765625 1.8424124999999998 4.506775634765625 1.8799124999999997 Q 4.543900634765625 1.9174124999999997 4.608400634765625 1.9174124999999997 Q 4.672900634765625 1.9174124999999997 4.709275634765625 1.8802874999999997 Q 4.745650634765624 1.8431624999999998 4.745650634765624 1.7644124999999997 L 4.745650634765624 1.4344124999999996 L 4.798150634765625 1.4344124999999996 L 4.798150634765625 1.7636624999999997 Q 4.798150634765625 1.8634124999999997 4.745275634765625 1.9136624999999998 Q 4.692400634765625 1.9639124999999997 4.6076506347656245 1.9639124999999997 Q 4.522900634765625 1.9639124999999997 4.470025634765625 1.9136624999999998 Q 4.417150634765625 1.8634124999999997 4.417150634765625 1.7636624999999997 L 4.417150634765625 1.4344124999999996 L 4.469650634765625 1.4344124999999996 M 5.20803369140625 1.6939124999999997 Q 5.16378369140625 1.7351624999999997 5.07528369140625 1.7351624999999997 L 4.96953369140625 1.7351624999999997 L 4.96953369140625 1.9586624999999998 L 4.91703369140625 1.9586624999999998 L 4.91703369140625 1.4344124999999996 L 5.07528369140625 1.4344124999999996 Q 5.16303369140625 1.4344124999999996 5.20765869140625 1.4756624999999999 Q 5.25228369140625 1.5169124999999997 5.25228369140625 1.5851624999999998 Q 5.25228369140625 1.6526624999999997 5.20803369140625 1.6939124999999997 M 5.19828369140625 1.5851624999999998 Q 5.19828369140625 1.5326624999999998 5.16903369140625 1.5056624999999997 Q 5.13978369140625 1.4786624999999998 5.07528369140625 1.4786624999999998 L 4.96953369140625 1.4786624999999998 L 4.96953369140625 1.6901624999999998 L 5.07528369140625 1.6901624999999998 Q 5.19828369140625 1.6901624999999998 5.19828369140625 1.5851624999999998 M 5.6329281005859375 1.6939124999999997 Q 5.588678100585938 1.7351624999999997 5.500178100585938 1.7351624999999997 L 5.394428100585937 1.7351624999999997 L 5.394428100585937 1.9586624999999998 L 5.341928100585937 1.9586624999999998 L 5.341928100585937 1.4344124999999996 L 5.500178100585938 1.4344124999999996 Q 5.587928100585938 1.4344124999999996 5.6325531005859375 1.4756624999999999 Q 5.677178100585937 1.5169124999999997 5.677178100585937 1.5851624999999998 Q 5.677178100585937 1.6526624999999997 5.6329281005859375 1.6939124999999997 M 5.623178100585937 1.5851624999999998 Q 5.623178100585937 1.5326624999999998 5.593928100585938 1.5056624999999997 Q 5.564678100585938 1.4786624999999998 5.500178100585938 1.4786624999999998 L 5.394428100585937 1.4786624999999998 L 5.394428100585937 1.6901624999999998 L 5.500178100585938 1.6901624999999998 Q 5.623178100585937 1.6901624999999998 5.623178100585937 1.5851624999999998 M 5.870322509765625 1.9297874999999998 Q 5.8110725097656255 1.8956624999999998 5.776947509765625 1.8345374999999997 Q 5.742822509765625 1.7734124999999998 5.742822509765625 1.6961624999999998 Q 5.742822509765625 1.6189124999999998 5.776947509765625 1.5577874999999999 Q 5.8110725097656255 1.4966624999999998 5.870322509765625 1.4625374999999998 Q 5.9295725097656256 1.4284124999999999 6.002322509765625 1.4284124999999999 Q 6.075822509765625 1.4284124999999999 6.135072509765625 1.4625374999999998 Q 6.194322509765625 1.4966624999999998 6.228072509765625 1.5577874999999999 Q 6.261822509765625 1.6189124999999998 6.261822509765625 1.6961624999999998 Q 6.261822509765625 1.7734124999999998 6.228072509765625 1.8345374999999997 Q 6.194322509765625 1.8956624999999998 6.135072509765625 1.9297874999999998 Q 6.075822509765625 1.9639124999999997 6.002322509765625 1.9639124999999997 Q 5.9295725097656256 1.9639124999999997 5.870322509765625 1.9297874999999998 M 6.107322509765625 1.8911624999999996 Q 6.153822509765625 1.8641624999999997 6.180822509765625 1.8135374999999998 Q 6.207822509765625 1.7629124999999997 6.207822509765625 1.6961624999999998 Q 6.207822509765625 1.6294124999999997 6.180822509765625 1.5791624999999998 Q 6.153822509765625 1.5289124999999997 6.107322509765625 1.5019124999999998 Q 6.060822509765625 1.4749124999999998 6.002322509765625 1.4749124999999998 Q 5.943822509765625 1.4749124999999998 5.897322509765625 1.5019124999999998 Q 5.850822509765625 1.5289124999999997 5.823822509765625 1.5791624999999998 Q 5.796822509765625 1.6294124999999997 5.796822509765625 1.6961624999999998 Q 5.796822509765625 1.7629124999999997 5.823822509765625 1.8135374999999998 Q 5.850822509765625 1.8641624999999997 5.897322509765625 1.8911624999999996 Q 5.943822509765625 1.9181624999999998 6.002322509765625 1.9181624999999998 Q 6.060822509765625 1.9181624999999998 6.107322509765625 1.8911624999999996 M 6.638716186523438 1.9586624999999998 L 6.508966186523438 1.7396624999999997 L 6.4122161865234375 1.7396624999999997 L 6.4122161865234375 1.9586624999999998 L 6.359716186523437 1.9586624999999998 L 6.359716186523437 1.4344124999999996 L 6.517216186523438 1.4344124999999996 Q 6.604966186523438 1.4344124999999996 6.650341186523438 1.4764124999999997 Q 6.695716186523438 1.5184124999999997 6.695716186523438 1.5866624999999996 Q 6.695716186523438 1.6436624999999998 6.663091186523438 1.6837874999999998 Q 6.630466186523438 1.7239124999999997 6.566716186523438 1.7359124999999997 L 6.701716186523438 1.9586624999999998 L 6.638716186523438 1.9586624999999998 M 6.4122161865234375 1.6969124999999998 L 6.517966186523438 1.6969124999999998 Q 6.579466186523438 1.6969124999999998 6.610591186523438 1.6669124999999998 Q 6.641716186523437 1.6369124999999998 6.641716186523437 1.5866624999999996 Q 6.641716186523437 1.5349124999999997 6.611716186523438 1.5067874999999997 Q 6.581716186523438 1.4786624999999998 6.517216186523438 1.4786624999999998 L 6.4122161865234375 1.4786624999999998 L 6.4122161865234375 1.6969124999999998 M 7.108572509765625 1.4344124999999996 L 7.108572509765625 1.4779124999999997 L 6.963072509765626 1.4779124999999997 L 6.963072509765626 1.9586624999999998 L 6.910572509765625 1.9586624999999998 L 6.910572509765625 1.4779124999999997 L 6.764322509765625 1.4779124999999997 L 6.764322509765625 1.4344124999999996 L 7.108572509765625 1.4344124999999996" fill="#225777" fill-rule="nonzero"></path></g></g><defs><clipPath id="SvgjsClipPath9575"><path d=" M -3.4234095865926513 -1.074931310579069 h 3.0234095865926514 v 4.108525121158138 h -3.0234095865926514 Z"></path></clipPath><clipPath id="SvgjsClipPath95733ac2c6cb-ed1f-4a89-be5e-28fbb0703f8a"><path d=" M -3.4234095865926513 -1.074931310579069 L -0.3999999999999999 -1.074931310579069 L -0.3999999999999999 3.033593810579069 L -3.4234095865926513 3.033593810579069 Z"></path></clipPath></defs></svg>